mtllib Part_1_17_Part_1.mtl
v 0.0005916603258810937 -0.11429999768733978 -0.04859189316630363
v 5.599085270722172e-19 -0.11429999768733978 -0.04851400107145309
v 5.599085270722172e-19 -0.1092199981212616 -0.04851400107145309
v 0.001142999972216785 -0.11429999768733978 -0.04882026463747024
v 0.0005916603258810937 -0.1092199981212616 -0.04859189316630363
v 0.0016164460685104132 -0.11429999768733978 -0.049183554947376244
v 0.001142999972216785 -0.1092199981212616 -0.04882026463747024
v 0.0019797340501099825 -0.11429999768733978 -0.04965699836611747
v 0.0016164460685104132 -0.1092199981212616 -0.049183554947376244
v 0.002208106452599168 -0.11429999768733978 -0.050208341330289834
v 0.0019797340501099825 -0.1092199981212616 -0.04965699836611747
v 0.00228599994443357 -0.11429999768733978 -0.05079999938607215
v 0.002208106452599168 -0.1092199981212616 -0.050208341330289834
v 0.002208106452599168 -0.11429999768733978 -0.05139166116714477
v 0.00228599994443357 -0.1092199981212616 -0.05079999938607215
v 0.0019797340501099825 -0.11429999768733978 -0.05194300040602683
v 0.002208106452599168 -0.1092199981212616 -0.05139166116714477
v 0.0016164460685104132 -0.11429999768733978 -0.05241644755005836
v 0.0019797340501099825 -0.1092199981212616 -0.05194300040602683
v 0.001142999972216785 -0.11429999768733978 -0.052779734134674065
v 0.0016164460685104132 -0.1092199981212616 -0.05241644755005836
v 0.0005916603258810937 -0.11429999768733978 -0.053008105605840676
v 0.001142999972216785 -0.1092199981212616 -0.052779734134674065
v -8.398627906083258e-19 -0.11429999768733978 -0.053086001425981515
v 0.0005916603258810937 -0.1092199981212616 -0.053008105605840676
v -0.0005916603258810937 -0.11429999768733978 -0.053008105605840676
v -2.799542635361086e-19 -0.1092199981212616 -0.053086001425981515
v -0.001142999972216785 -0.11429999768733978 -0.052779734134674065
v -0.0005916603258810937 -0.1092199981212616 -0.053008105605840676
v -0.0016164460685104132 -0.11429999768733978 -0.05241644755005836
v -0.001142999972216785 -0.1092199981212616 -0.052779734134674065
v -0.0019797340501099825 -0.11429999768733978 -0.05194300040602683
v -0.0016164460685104132 -0.1092199981212616 -0.05241644755005836
v -0.002208106452599168 -0.11429999768733978 -0.05139166116714477
v -0.0019797340501099825 -0.1092199981212616 -0.05194300040602683
v -0.00228599994443357 -0.11429999768733978 -0.05079999938607215
v -0.002208106452599168 -0.1092199981212616 -0.05139166116714477
v -0.002208106452599168 -0.11429999768733978 -0.050208341330289834
v -0.00228599994443357 -0.1092199981212616 -0.05079999938607215
v -0.0019797340501099825 -0.11429999768733978 -0.04965699836611747
v -0.002208106452599168 -0.1092199981212616 -0.050208341330289834
v -0.0016164460685104132 -0.11429999768733978 -0.049183554947376244
v -0.0019797340501099825 -0.1092199981212616 -0.04965699836611747
v -0.001142999972216785 -0.11429999768733978 -0.04882026463747024
v -0.0016164460685104132 -0.1092199981212616 -0.049183554947376244
v -0.0005916603258810937 -0.11429999768733978 -0.04859189316630363
v -0.001142999972216785 -0.1092199981212616 -0.04882026463747024
v -0.0005916603258810937 -0.1092199981212616 -0.04859189316630363
v -0.00634999992325902 -0.1092199981212616 -0.057149998843669884
v -0.00634999992325902 -0.1092199981212616 -0.04444999992847442
v 0.006133629009127617 -0.1092199981212616 -0.049156498163938515
v 0.00634999992325902 -0.1092199981212616 -0.05079999938607215
v 0.006133629009127617 -0.1092199981212616 -0.05244350060820579
v 0.0054992614313960075 -0.1092199981212616 -0.05397500097751617
v 0.004490128252655268 -0.1092199981212616 -0.04630987346172332
v 0.0054992614313960075 -0.1092199981212616 -0.047625001519918435
v 0.004490128252655268 -0.1092199981212616 -0.05529012903571128
v 0.00317499996162951 -0.1092199981212616 -0.056299261748790734
v 0.0016435009893029928 -0.1092199981212616 -0.05693363025784492
v -1.0211578783167394e-18 -0.1092199981212616 -0.04444999992847442
v 0.0016435009893029928 -0.1092199981212616 -0.044666372239589684
v 1.7988086735488935e-18 -0.1092199981212616 -0.057149998843669884
v 0.00317499996162951 -0.1092199981212616 -0.04530073702335357
v -0.00634999992325902 -0.11429999768733978 -0.04444999992847442
v -1.0211578783167394e-18 -0.11429999768733978 -0.04444999992847442
v 1.7988086735488935e-18 -0.11429999768733978 -0.057149998843669884
v 0.0016435009893029928 -0.11429999768733978 -0.05693363025784492
v 0.00317499996162951 -0.11429999768733978 -0.056299261748790734
v 0.004490128252655268 -0.11429999768733978 -0.05529012903571128
v 0.0054992614313960075 -0.11429999768733978 -0.05397500097751617
v 0.006133629009127617 -0.11429999768733978 -0.05244350060820579
v 0.00634999992325902 -0.11429999768733978 -0.05079999938607215
v 0.006133629009127617 -0.11429999768733978 -0.049156498163938515
v 0.0054992614313960075 -0.11429999768733978 -0.047625001519918435
v 0.004490128252655268 -0.11429999768733978 -0.04630987346172332
v 0.00317499996162951 -0.11429999768733978 -0.04530073702335357
v 0.0016435009893029928 -0.11429999768733978 -0.044666372239589684
v -0.00634999992325902 -0.11429999768733978 -0.057149998843669884
v 0.00317499996162951 -0.11429999768733978 -0.005499261431396007
v 0.004490128252655268 -0.11429999768733978 -0.004490128252655267
v 0.0016164460685104132 -0.11429999768733978 -0.001616446068510413
v 0.0019797340501099825 -0.11429999768733978 -0.0011429999722167847
v 0.006133629009127617 -0.11429999768733978 -0.0016435009893029926
v 0.00634999992325902 -0.11429999768733978 -1.166476037751866e-18
v 0.00228599994443357 -0.11429999768733978 -2.3103301333164787e-18
v 0.002208106452599168 -0.11429999768733978 0.0005916603258810936
v 0.004490128252655268 -0.11429999768733978 0.004490128252655267
v 0.00317499996162951 -0.11429999768733978 0.005499261431396007
v 0.001142999972216785 -0.11429999768733978 0.001979734050109982
v 0.0005916603258810937 -0.11429999768733978 0.0022081064525991674
v -0.009525000117719173 -0.11429999768733978 0.006349999923259019
v -0.00634999992325902 -0.11429999768733978 -0.006349999923259019
v -0.002208106452599168 -0.11429999768733978 -0.0005916603258810936
v -0.0016164460685104132 -0.11429999768733978 -0.001616446068510413
v -0.0019797340501099825 -0.11429999768733978 -0.0011429999722167847
v 0.0054992614313960075 -0.11429999768733978 -0.0031749999616295095
v 0.002208106452599168 -0.11429999768733978 -0.0005916603258810936
v 0.006133629009127617 -0.11429999768733978 0.0016435009893029926
v 0.0019797340501099825 -0.11429999768733978 0.0011429999722167847
v 0.0054992614313960075 -0.11429999768733978 0.0031749999616295095
v 0.0016164460685104132 -0.11429999768733978 0.001616446068510413
v 0.0016435009893029928 -0.11429999768733978 0.006133629009127616
v -0.001142999972216785 -0.11429999768733978 0.001979734050109982
v -0.0005916603258810937 -0.11429999768733978 0.0022081064525991674
v 3.8882534591728874e-19 -0.11429999768733978 0.006349999923259019
v 0.0005916603258810937 -0.11429999768733978 -0.0022081064525991674
v -8.398627906083258e-19 -0.11429999768733978 -0.0022859999444335695
v 0.0 -0.11429999768733978 -0.006349999923259019
v 5.599085270722172e-19 -0.11429999768733978 0.0022859999444335695
v -0.002208106452599168 -0.11429999768733978 0.0005916603258810936
v -0.0019797340501099825 -0.11429999768733978 0.0011429999722167847
v -0.00228599994443357 -0.11429999768733978 7.875482180565041e-19
v 0.001142999972216785 -0.11429999768733978 -0.001979734050109982
v 0.0016435009893029928 -0.11429999768733978 -0.006133629009127616
v -0.0016164460685104132 -0.11429999768733978 0.001616446068510413
v -0.0005916603258810937 -0.11429999768733978 -0.0022081064525991674
v -0.001142999972216785 -0.11429999768733978 -0.001979734050109982
v -0.009525000117719173 -0.11429999768733978 -0.06567897647619246
v -0.00634999992325902 -0.11429999768733978 -0.06567897647619246
v -0.009525000117719173 -0.11343451589345932 -0.072252981364727
v -0.00634999992325902 -0.11343451589345932 -0.072252981364727
v -0.009525000117719173 -0.11089704185724258 -0.07837897539138793
v -0.00634999992325902 -0.11089704185724258 -0.07837897539138793
v -0.009525000117719173 -0.10686051100492477 -0.08363948762416838
v -0.00634999992325902 -0.10686051100492477 -0.08363948762416838
v -0.009525000117719173 -0.08998949080705643 -0.10051051527261733
v -0.00634999992325902 -0.08998949080705643 -0.10051051527261733
v -0.009525000117719173 -0.07202897220849991 -0.10795000195503233
v -0.00634999992325902 -0.07202897220849991 -0.10795000195503233
v -0.00634999992325902 -0.07860297709703445 -0.10708451271057128
v -0.009525000117719173 -0.07860297709703445 -0.10708451271057128
v -0.00634999992325902 -0.08472897857427597 -0.10454704612493514
v -0.009525000117719173 -0.08472897857427597 -0.10454704612493514
v 0.0 -0.1092199981212616 -0.006349999923259019
v -0.00634999992325902 -0.1092199981212616 -0.006349999923259019
v 0.0016435009893029928 -0.1092199981212616 0.006133629009127616
v 0.00317499996162951 -0.1092199981212616 0.005499261431396007
v 0.001142999972216785 -0.1092199981212616 0.001979734050109982
v 0.0016164460685104132 -0.1092199981212616 0.001616446068510413
v 3.8882534591728874e-19 -0.1092199981212616 0.006349999923259019
v 0.0005916603258810937 -0.1092199981212616 0.0022081064525991674
v 0.004490128252655268 -0.1092199981212616 0.004490128252655267
v 0.006133629009127617 -0.1092199981212616 0.0016435009893029926
v 0.00634999992325902 -0.1092199981212616 -1.166476037751866e-18
v 0.00228599994443357 -0.1092199981212616 -2.3103301333164787e-18
v 0.002208106452599168 -0.1092199981212616 -0.0005916603258810936
v -0.002208106452599168 -0.1092199981212616 -0.0005916603258810936
v -0.0019797340501099825 -0.1092199981212616 -0.0011429999722167847
v -0.00228599994443357 -0.1092199981212616 7.875482180565041e-19
v 0.0019797340501099825 -0.1092199981212616 0.0011429999722167847
v 0.0054992614313960075 -0.1092199981212616 0.0031749999616295095
v 0.002208106452599168 -0.1092199981212616 0.0005916603258810936
v 0.006133629009127617 -0.1092199981212616 -0.0016435009893029926
v 0.0054992614313960075 -0.1092199981212616 -0.0031749999616295095
v 0.004490128252655268 -0.1092199981212616 -0.004490128252655267
v 0.0016164460685104132 -0.1092199981212616 -0.001616446068510413
v 0.001142999972216785 -0.1092199981212616 -0.001979734050109982
v -0.00634999992325902 -0.1092199981212616 0.006349999923259019
v -0.0005916603258810937 -0.1092199981212616 0.0022081064525991674
v 0.0019797340501099825 -0.1092199981212616 -0.0011429999722167847
v 0.00317499996162951 -0.1092199981212616 -0.005499261431396007
v -0.001142999972216785 -0.1092199981212616 -0.001979734050109982
v -0.0005916603258810937 -0.1092199981212616 -0.0022081064525991674
v -0.002208106452599168 -0.1092199981212616 0.0005916603258810936
v -0.0016164460685104132 -0.1092199981212616 0.001616446068510413
v -0.0019797340501099825 -0.1092199981212616 0.0011429999722167847
v 5.599085270722172e-19 -0.1092199981212616 0.0022859999444335695
v 0.0016435009893029928 -0.1092199981212616 -0.006133629009127616
v 0.0005916603258810937 -0.1092199981212616 -0.0022081064525991674
v -2.799542635361086e-19 -0.1092199981212616 -0.0022859999444335695
v -0.001142999972216785 -0.1092199981212616 0.001979734050109982
v -0.0016164460685104132 -0.1092199981212616 -0.001616446068510413
v -0.009525000117719173 -0.042271025478839874 -0.10795000195503233
v -0.00634999992325902 -0.042271025478839874 -0.10795000195503233
v -0.009525000117719173 -0.03569702059030533 -0.10708451271057128
v -0.00634999992325902 -0.03569702059030533 -0.10708451271057128
v -0.009525000117719173 -0.02957102470099926 -0.10454704612493514
v -0.00634999992325902 -0.02957102470099926 -0.10454704612493514
v -0.009525000117719173 -0.024310512468218803 -0.10051051527261733
v -0.00634999992325902 -0.024310512468218803 -0.10051051527261733
v -0.009525000117719173 -0.007439487613737583 -0.08363948762416838
v -0.00634999992325902 -0.007439487613737583 -0.08363948762416838
v -0.009525000117719173 0.0 -0.06567897647619246
v -0.00634999992325902 0.0 -0.06567897647619246
v -0.00634999992325902 -0.000488053890876472 -0.07063426822423934
v -0.009525000117719173 -0.000488053890876472 -0.07063426822423934
v -0.00634999992325902 -0.0019334598910063505 -0.07539913803339003
v -0.009525000117719173 -0.0019334598910063505 -0.07539913803339003
v -0.00634999992325902 -0.004280671942979097 -0.07979045808315276
v -0.009525000117719173 -0.004280671942979097 -0.07979045808315276
v -0.009525000117719173 0.0 0.006349999923259019
v 3.8882534591728874e-19 0.0 0.006349999923259019
v -0.00634999992325902 -0.005080000031739473 0.006349999923259019
v 3.8882534591728874e-19 -0.005080000031739473 0.006349999923259019
v 0.0016435009893029928 -0.005080000031739473 0.006133629009127616
v 0.0016435009893029928 0.0 0.006133629009127616
v 0.00317499996162951 -0.005080000031739473 0.005499261431396007
v 0.00317499996162951 0.0 0.005499261431396007
v 0.004490128252655268 -0.005080000031739473 0.004490128252655267
v 0.004490128252655268 0.0 0.004490128252655267
v 0.0054992614313960075 -0.005080000031739473 0.0031749999616295095
v 0.0054992614313960075 0.0 0.0031749999616295095
v 0.006133629009127617 -0.005080000031739473 0.0016435009893029926
v 0.006133629009127617 0.0 0.0016435009893029926
v 0.00634999992325902 -0.005080000031739473 1.798808673548893e-18
v 0.00634999992325902 0.0 1.798808673548893e-18
v 0.006133629009127617 -0.005080000031739473 -0.0016435009893029926
v 0.006133629009127617 0.0 -0.0016435009893029926
v 0.0054992614313960075 -0.005080000031739473 -0.0031749999616295095
v 0.0054992614313960075 0.0 -0.0031749999616295095
v 0.004490128252655268 -0.005080000031739473 -0.004490128252655267
v 0.004490128252655268 0.0 -0.004490128252655267
v 0.00317499996162951 -0.005080000031739473 -0.005499261431396007
v 0.00317499996162951 0.0 -0.005499261431396007
v 0.0016435009893029928 -0.005080000031739473 -0.006133629009127616
v 0.0016435009893029928 0.0 -0.006133629009127616
v 0.0 -0.005080000031739473 -0.006349999923259019
v 0.0 0.0 -0.006349999923259019
v -0.00634999992325902 -0.005080000031739473 -0.006349999923259019
v -0.00634999992325902 0.0 -0.006349999923259019
v 0.0019797340501099825 -0.005080000031739473 -0.0011429999722167847
v 0.002208106452599168 -0.005080000031739473 -0.0005916603258810936
v 0.00228599994443357 -0.005080000031739473 7.875482180565041e-19
v -0.001142999972216785 -0.005080000031739473 0.001979734050109982
v -0.00228599994443357 -0.005080000031739473 -2.3103301333164787e-18
v -0.002208106452599168 -0.005080000031739473 0.0005916603258810936
v 0.002208106452599168 -0.005080000031739473 0.0005916603258810936
v 0.0019797340501099825 -0.005080000031739473 0.0011429999722167847
v 0.0016164460685104132 -0.005080000031739473 0.001616446068510413
v 0.0005916603258810937 -0.005080000031739473 0.0022081064525991674
v 0.0 -0.005080000031739473 0.0022859999444335695
v -0.0016164460685104132 -0.005080000031739473 0.001616446068510413
v -0.001142999972216785 -0.005080000031739473 -0.001979734050109982
v -0.0016164460685104132 -0.005080000031739473 -0.001616446068510413
v 0.0005916603258810937 -0.005080000031739473 -0.0022081064525991674
v 0.001142999972216785 -0.005080000031739473 -0.001979734050109982
v 0.001142999972216785 -0.005080000031739473 0.001979734050109982
v -0.0019797340501099825 -0.005080000031739473 0.0011429999722167847
v -0.002208106452599168 -0.005080000031739473 -0.0005916603258810936
v -0.0019797340501099825 -0.005080000031739473 -0.0011429999722167847
v 0.0016164460685104132 -0.005080000031739473 -0.001616446068510413
v -0.0005916603258810937 -0.005080000031739473 0.0022081064525991674
v -0.0005916603258810937 -0.005080000031739473 -0.0022081064525991674
v 2.799542635361086e-19 -0.005080000031739473 -0.0022859999444335695
v -0.0005916603258810937 0.0 0.0022081064525991674
v 0.0 0.0 0.0022859999444335695
v -0.001142999972216785 0.0 0.001979734050109982
v -0.0016164460685104132 0.0 0.001616446068510413
v -0.0019797340501099825 0.0 0.0011429999722167847
v -0.002208106452599168 0.0 0.0005916603258810936
v -0.00228599994443357 0.0 -2.3103301333164787e-18
v -0.002208106452599168 0.0 -0.0005916603258810936
v -0.0019797340501099825 0.0 -0.0011429999722167847
v -0.0016164460685104132 0.0 -0.001616446068510413
v -0.001142999972216785 0.0 -0.001979734050109982
v -0.0005916603258810937 0.0 -0.0022081064525991674
v 8.398627906083258e-19 0.0 -0.0022859999444335695
v 0.0005916603258810937 0.0 -0.0022081064525991674
v 0.001142999972216785 0.0 -0.001979734050109982
v 0.0016164460685104132 0.0 -0.001616446068510413
v 0.0019797340501099825 0.0 -0.0011429999722167847
v 0.002208106452599168 0.0 -0.0005916603258810936
v 0.00228599994443357 0.0 7.875482180565041e-19
v 0.002208106452599168 0.0 0.0005916603258810936
v 0.0019797340501099825 0.0 0.0011429999722167847
v 0.0016164460685104132 0.0 0.001616446068510413
v 0.001142999972216785 0.0 0.001979734050109982
v 0.0005916603258810937 0.0 0.0022081064525991674
v -0.00634999992325902 -0.005080000031739473 -0.057149998843669884
v -0.00634999992325902 -0.005080000031739473 -0.04444999992847442
v -0.00634999992325902 0.0 -0.04444999992847442
v -0.00634999992325902 0.0 -0.057149998843669884
v -1.0211578783167394e-18 -0.005080000031739473 -0.04444999992847442
v -1.0211578783167394e-18 0.0 -0.04444999992847442
v 0.0016435009893029928 -0.005080000031739473 -0.044666372239589684
v 0.0016435009893029928 0.0 -0.044666372239589684
v 0.00317499996162951 -0.005080000031739473 -0.04530073702335357
v 0.00317499996162951 0.0 -0.04530073702335357
v 0.004490128252655268 -0.005080000031739473 -0.04630987346172332
v 0.004490128252655268 0.0 -0.04630987346172332
v 0.0054992614313960075 -0.005080000031739473 -0.047625001519918435
v 0.0054992614313960075 0.0 -0.047625001519918435
v 0.006133629009127617 -0.005080000031739473 -0.049156498163938515
v 0.006133629009127617 0.0 -0.049156498163938515
v 0.00634999992325902 -0.005080000031739473 -0.05079999938607215
v 0.00634999992325902 0.0 -0.05079999938607215
v 0.006133629009127617 -0.005080000031739473 -0.05244350060820579
v 0.006133629009127617 0.0 -0.05244350060820579
v 0.0054992614313960075 -0.005080000031739473 -0.05397500097751617
v 0.0054992614313960075 0.0 -0.05397500097751617
v 0.004490128252655268 -0.005080000031739473 -0.05529012903571128
v 0.004490128252655268 0.0 -0.05529012903571128
v 0.00317499996162951 -0.005080000031739473 -0.056299261748790734
v 0.00317499996162951 0.0 -0.056299261748790734
v 0.0016435009893029928 -0.005080000031739473 -0.05693363025784492
v 0.0016435009893029928 0.0 -0.05693363025784492
v 1.7988086735488935e-18 -0.005080000031739473 -0.057149998843669884
v 1.7988086735488935e-18 0.0 -0.057149998843669884
v 0.002208106452599168 0.0 -0.05139166116714477
v 0.0019797340501099825 0.0 -0.05194300040602683
v -0.002208106452599168 0.0 -0.050208341330289834
v -0.00228599994443357 0.0 -0.05079999938607215
v 0.0016164460685104132 0.0 -0.05241644755005836
v 0.0019797340501099825 0.0 -0.04965699836611747
v 0.002208106452599168 0.0 -0.050208341330289834
v 0.00228599994443357 0.0 -0.05079999938607215
v -0.0019797340501099825 0.0 -0.04965699836611747
v -0.002208106452599168 0.0 -0.05139166116714477
v -0.0019797340501099825 0.0 -0.05194300040602683
v -0.0016164460685104132 0.0 -0.049183554947376244
v 0.0016164460685104132 0.0 -0.049183554947376244
v 0.0005916603258810937 0.0 -0.04859189316630363
v 0.0 0.0 -0.04851400107145309
v 0.001142999972216785 0.0 -0.052779734134674065
v 0.0005916603258810937 0.0 -0.053008105605840676
v 8.398627906083258e-19 0.0 -0.053086001425981515
v -0.0016164460685104132 0.0 -0.05241644755005836
v 0.001142999972216785 0.0 -0.04882026463747024
v -0.001142999972216785 0.0 -0.052779734134674065
v -0.0005916603258810937 0.0 -0.053008105605840676
v -0.001142999972216785 0.0 -0.04882026463747024
v -0.0005916603258810937 0.0 -0.04859189316630363
v -0.00228599994443357 -0.005080000031739473 -0.05079999938607215
v 0.0019797340501099825 -0.005080000031739473 -0.05194300040602683
v 0.002208106452599168 -0.005080000031739473 -0.05139166116714477
v -0.002208106452599168 -0.005080000031739473 -0.05139166116714477
v 0.00228599994443357 -0.005080000031739473 -0.05079999938607215
v -0.002208106452599168 -0.005080000031739473 -0.050208341330289834
v 0.002208106452599168 -0.005080000031739473 -0.050208341330289834
v 0.0019797340501099825 -0.005080000031739473 -0.04965699836611747
v 0.0016164460685104132 -0.005080000031739473 -0.049183554947376244
v -0.0019797340501099825 -0.005080000031739473 -0.04965699836611747
v -0.0016164460685104132 -0.005080000031739473 -0.05241644755005836
v -0.0019797340501099825 -0.005080000031739473 -0.05194300040602683
v 0.0005916603258810937 -0.005080000031739473 -0.053008105605840676
v 0.001142999972216785 -0.005080000031739473 -0.052779734134674065
v 0.0016164460685104132 -0.005080000031739473 -0.05241644755005836
v 0.001142999972216785 -0.005080000031739473 -0.04882026463747024
v -0.001142999972216785 -0.005080000031739473 -0.04882026463747024
v -0.0005916603258810937 -0.005080000031739473 -0.04859189316630363
v -0.001142999972216785 -0.005080000031739473 -0.052779734134674065
v 0.0005916603258810937 -0.005080000031739473 -0.04859189316630363
v 0.0 -0.005080000031739473 -0.04851400107145309
v -0.0016164460685104132 -0.005080000031739473 -0.049183554947376244
v -0.0005916603258810937 -0.005080000031739473 -0.053008105605840676
v 2.799542635361086e-19 -0.005080000031739473 -0.053086001425981515
v -0.009525000117719173 -0.01827961578965187 -0.07479140907526015
v -0.009525000117719173 -0.033158592879772186 -0.08967038244009017
v -0.009525000117719173 -0.0811414122581482 -0.08967038244009017
v -0.009525000117719173 -0.09602038562297821 -0.07479140907526015
v -0.009525000117719173 -0.01269999984651804 -0.04027897492051124
v -0.009525000117719173 -0.013066040351986885 -0.06503749638795851
v -0.009525000117719173 -0.01269999984651804 -0.061321023851633065
v -0.009525000117719173 -0.03710397705435753 -0.09269778430461882
v -0.009525000117719173 -0.09904778748750687 -0.07084602117538451
v -0.009525000117719173 -0.015910504385828972 -0.02969536185264587
v -0.009525000117719173 -0.01827961578965187 -0.0268085915595293
v -0.009525000117719173 -0.015910504385828972 -0.07190463691949843
v -0.009525000117719173 -0.0676710233092308 -0.09525000303983687
v -0.009525000117719173 -0.07825464010238647 -0.09203949570655821
v -0.009525000117719173 -0.033158592879772186 -0.011929615400731562
v -0.009525000117719173 -0.013066040351986885 -0.03656250610947608
v -0.009525000117719173 -0.014150095172226429 -0.06861114501953124
v -0.009525000117719173 -0.04662897437810898 -0.09525000303983687
v -0.009525000117719173 -0.07138749212026596 -0.09488395601511
v -0.009525000117719173 -0.07496114075183868 -0.09379990398883818
v -0.009525000117719173 -0.03604536131024361 -0.009560503996908663
v -0.009525000117719173 -0.014150095172226429 -0.03298885747790336
v -0.009525000117719173 -0.10159999877214432 -0.061321023851633065
v -0.009525000117719173 -0.07719602435827255 -0.00890221633017063
v -0.009525000117719173 -0.0811414122581482 -0.011929615400731562
v -0.009525000117719173 -0.0393388569355011 -0.007800094783306121
v -0.009525000117719173 -0.04169847443699837 -0.09460088610649107
v -0.009525000117719173 -0.10159999877214432 -0.04027897492051124
v -0.009525000117719173 -0.10095088928937912 -0.03534847125411033
v -0.009525000117719173 -0.09602038562297821 -0.0268085915595293
v -0.009525000117719173 -0.04662897437810898 -0.006349999923259019
v -0.009525000117719173 -0.0676710233092308 -0.006349999923259019
v -0.009525000117719173 -0.10095088928937912 -0.06625152379274367
v -0.009525000117719173 -0.09904778748750687 -0.030753975734114643
v -0.009525000117719173 -0.04291250556707382 -0.006716040428727864
v -0.009525000117719173 -0.07260152697563171 -0.006999113131314515
v -0.009325000457465649 -0.0811414122581482 -0.08967038244009017
v -0.009325000457465649 -0.07825464010238647 -0.09203949570655821
v -0.009325000457465649 -0.07496114075183868 -0.09379990398883818
v -0.009325000457465649 -0.07138749212026596 -0.09488395601511
v -0.009325000457465649 -0.0676710233092308 -0.09525000303983687
v -0.009325000457465649 -0.04662897437810898 -0.09525000303983687
v -0.009325000457465649 -0.04169847443699837 -0.09460088610649107
v -0.009325000457465649 -0.03710397705435753 -0.09269778430461882
v -0.009325000457465649 -0.033158592879772186 -0.08967038244009017
v -0.009325000457465649 -0.01827961578965187 -0.07479140907526015
v -0.009325000457465649 -0.015910504385828972 -0.07190463691949843
v -0.009325000457465649 -0.014150095172226429 -0.06861114501953124
v -0.009325000457465649 -0.013066040351986885 -0.06503749638795851
v -0.009325000457465649 -0.01269999984651804 -0.061321023851633065
v -0.009325000457465649 -0.01269999984651804 -0.04027897492051124
v -0.009325000457465649 -0.013066040351986885 -0.03656250610947608
v -0.009325000457465649 -0.014150095172226429 -0.03298885747790336
v -0.009325000457465649 -0.015910504385828972 -0.02969536185264587
v -0.009325000457465649 -0.01827961578965187 -0.0268085915595293
v -0.009325000457465649 -0.033158592879772186 -0.011929615400731562
v -0.009325000457465649 -0.03604536131024361 -0.009560503996908663
v -0.009325000457465649 -0.0393388569355011 -0.007800094783306121
v -0.009325000457465649 -0.04291250556707382 -0.006716040428727864
v -0.009325000457465649 -0.04662897437810898 -0.006349999923259019
v -0.009325000457465649 -0.0676710233092308 -0.006349999923259019
v -0.009325000457465649 -0.07260152697563171 -0.006999113131314515
v -0.009325000457465649 -0.07719602435827255 -0.00890221633017063
v -0.009325000457465649 -0.0811414122581482 -0.011929615400731562
v -0.009325000457465649 -0.09602038562297821 -0.0268085915595293
v -0.009325000457465649 -0.09904778748750687 -0.030753975734114643
v -0.009325000457465649 -0.10095088928937912 -0.03534847125411033
v -0.009325000457465649 -0.10159999877214432 -0.04027897492051124
v -0.009325000457465649 -0.10159999877214432 -0.061321023851633065
v -0.009325000457465649 -0.10095088928937912 -0.06625152379274367
v -0.009325000457465649 -0.09904778748750687 -0.07084602117538451
v -0.009325000457465649 -0.09602038562297821 -0.07479140907526015
v -0.009325000457465649 -0.036581773310899734 -0.04980914667248725
v -0.009325000457465649 -0.033747587352991104 -0.07216456532478331
v -0.009325000457465649 -0.04053733870387077 -0.02765647508203983
v -0.009325000457465649 -0.0725826546549797 -0.06433795392513274
v -0.009325000457465649 -0.07192264497280121 -0.06995435804128645
v -0.009325000457465649 -0.07331989705562592 -0.05873459577560424
v -0.009325000457465649 -0.04419875890016556 -0.02436476200819015
v -0.009325000457465649 -0.04739244282245636 -0.021857172250747677
v -0.009325000457465649 -0.033750008791685104 -0.07241287082433699
v -0.009325000457465649 -0.0739169716835022 -0.05469044297933578
v -0.009325000457465649 -0.07351116091012955 -0.0573689118027687
v -0.009325000457465649 -0.04101770371198654 -0.026905270293354985
v -0.009325000457465649 -0.06392108649015427 -0.07807771116495131
v -0.009325000457465649 -0.03949771448969841 -0.07807771116495131
v -0.009325000457465649 -0.06812263280153275 -0.07445714622735976
v -0.009325000457465649 -0.0734148919582367 -0.05805175378918647
v -0.009325000457465649 -0.07435157150030136 -0.051987949758768075
v -0.009325000457465649 -0.04077065363526344 -0.027153596282005307
v -0.009325000457465649 -0.04062000289559364 -0.02740129083395004
v -0.009325000457465649 -0.06474150717258453 -0.07774491608142851
v -0.009325000457465649 -0.07151893526315689 -0.07120136916637419
v -0.009325000457465649 -0.07856746017932892 -0.028970340266823765
v -0.009325000457465649 -0.07687345147132874 -0.03723564743995666
v -0.009325000457465649 -0.07632246613502502 -0.025705933570861813
v -0.009325000457465649 -0.03876484930515289 -0.07795111835002898
v -0.009325000457465649 -0.036372095346450806 -0.07544977217912673
v -0.009325000457465649 -0.039457350969314575 -0.07808083295822142
v -0.009325000457465649 -0.0715915635228157 -0.07111529260873793
v -0.009325000457465649 -0.07533620297908783 -0.0455353558063507
v -0.009325000457465649 -0.07533546537160873 -0.04553893953561782
v -0.009325000457465649 -0.07426811009645462 -0.02312999218702316
v -0.009325000457465649 -0.060882944613695145 -0.022175313904881474
v -0.009325000457465649 -0.04821839928627014 -0.02157066017389297
v -0.009325000457465649 -0.05862673744559288 -0.045994054526090615
v -0.009325000457465649 -0.05039893835783005 -0.05164771527051925
v -0.009325000457465649 -0.050423406064510345 -0.05173457413911819
v -0.009325000457465649 -0.03399452567100525 -0.07292204350233077
v -0.009325000457465649 -0.03880990669131279 -0.07798781245946883
v -0.009325000457465649 -0.039083413779735565 -0.07807224988937377
v -0.009325000457465649 -0.0642523542046547 -0.07798538357019423
v -0.009325000457465649 -0.06470932811498642 -0.0777723118662834
v -0.009325000457465649 -0.07189011573791504 -0.07017961144447325
v -0.009325000457465649 -0.07435639202594757 -0.051836356520652764
v -0.009325000457465649 -0.07532182335853577 -0.045592602342367165
v -0.009325000457465649 -0.0785888135433197 -0.028758537024259564
v -0.009325000457465649 -0.07839453965425491 -0.0282567273825407
v -0.009325000457465649 -0.07354636490345001 -0.022787548601627346
v -0.009325000457465649 -0.05015901103615761 -0.04585824161767959
v -0.009325000457465649 -0.04980108141899109 -0.04602150246500968
v -0.009325000457465649 -0.04975264519453049 -0.04609845206141471
v -0.009325000457465649 -0.049907386302948 -0.04592590779066085
v -0.009325000457465649 -0.05010092630982399 -0.04585886746644973
v -0.009325000457465649 -0.051765333861112595 -0.045659333467483514
v -0.009325000457465649 -0.05141345411539078 -0.04578267410397529
v -0.009325000457465649 -0.051329355686903 -0.045871157199144356
v -0.009325000457465649 -0.05164079740643501 -0.045670129358768456
v -0.009325000457465649 -0.051526010036468506 -0.045709948986768716
v -0.009325000457465649 -0.050466593354940414 -0.05180869996547698
v -0.009325000457465649 -0.04768965765833855 -0.021675033494830128
v -0.009325000457465649 -0.04795736074447632 -0.02158904634416103
v -0.009325000457465649 -0.03380172327160835 -0.07261809706687926
v -0.009325000457465649 -0.06455028057098389 -0.07786794006824492
v -0.009325000457465649 -0.07426246255636215 -0.05157168582081794
v -0.009325000457465649 -0.07432570308446884 -0.05169901996850967
v -0.009325000457465649 -0.07403966784477234 -0.05136699974536895
v -0.009325000457465649 -0.07416508346796036 -0.051456820219755166
v -0.009325000457465649 -0.059482816606760025 -0.05104289203882217
v -0.009325000457465649 -0.07374458760023117 -0.05128983035683631
v -0.009325000457465649 -0.07533583045005798 -0.045536097139120095
v -0.009325000457465649 -0.0753355547785759 -0.04553714767098426
v -0.009325000457465649 -0.07528212666511536 -0.045677300542592995
v -0.009325000457465649 -0.07412083446979523 -0.0229836069047451
v -0.009325000457465649 -0.07371816039085388 -0.022807417437434193
v -0.009325000457465649 -0.04987235367298126 -0.045950848609209054
v -0.009325000457465649 -0.05000675469636917 -0.04587836936116218
v -0.009325000457465649 -0.050528086721897125 -0.05187082663178443
v -0.009325000457465649 -0.04813137650489807 -0.051723681390285485
v -0.009325000457465649 -0.04796309024095535 -0.05150448158383369
v -0.009325000457465649 -0.04798200726509094 -0.05157282575964927
v -0.009325000457465649 -0.03390706330537796 -0.0728146657347679
v -0.009325000457465649 -0.03889787942171097 -0.07803033292293547
v -0.009325000457465649 -0.07170126587152481 -0.07089990377426146
v -0.009325000457465649 -0.07389137893915176 -0.051309175789356225
v -0.009325000457465649 -0.051890045404434204 -0.051900394260883324
v -0.009325000457465649 -0.057759784162044525 -0.051615610718727105
v -0.009325000457465649 -0.07512608170509338 -0.04582813009619712
v -0.009325000457465649 -0.07500632852315903 -0.04588046669960021
v -0.009325000457465649 -0.07521907985210419 -0.045756284147500985
v -0.009325000457465649 -0.07856398075819016 -0.028578041121363636
v -0.009325000457465649 -0.07849227637052536 -0.02839931100606918
v -0.009325000457465649 -0.0512695237994194 -0.04597498103976249
v -0.009325000457465649 -0.049723729491233826 -0.046184327453374856
v -0.009325000457465649 -0.04796665906906128 -0.051393561065196984
v -0.009325000457465649 -0.05284452810883522 -0.04570944979786872
v -0.009325000457465649 -0.05060269311070442 -0.05191578716039657
v -0.009325000457465649 -0.04801691696047783 -0.051633656024932854
v -0.009325000457465649 -0.07393389940261841 -0.022872734814882275
v -0.009325000457465649 -0.0479612834751606 -0.051429551094770425
v -0.009325000457465649 -0.060163840651512146 -0.046625625342130654
v -0.009325000457465649 -0.05079472064971924 -0.051950357854366296
v -0.009325000457465649 -0.050690606236457825 -0.051943313330411904
v -0.009325000457465649 -0.04806576296687126 -0.05168385803699493
v -0.009325000457465649 -0.056953392922878265 -0.0617384910583496
v -0.009325000457465649 -0.05189431458711624 -0.0561753399670124
v -0.009325000457465649 -0.06094310060143471 -0.035870965570211404
v -0.009325000457465649 -0.06400066614151001 -0.02578538469970226
v -0.009325000457465649 -0.062188778072595596 -0.02787981182336807
v -0.009325000457465649 -0.05580843240022659 -0.037640787661075585
v -0.009325000457465649 -0.0748792290687561 -0.04590213298797607
v -0.009325000457465649 -0.048290763050317764 -0.05175162479281425
v -0.009325000457465649 -0.048204466700553894 -0.05174618959426879
v -0.009325000457465649 -0.053326256573200226 -0.06387316435575484
v -0.009325000457465649 -0.05690052732825279 -0.0718242824077606
v -0.00912499986588955 -0.050423406064510345 -0.05173457413911819
v -0.00912499986588955 -0.050466593354940414 -0.05180869996547698
v -0.00912499986588955 -0.050528086721897125 -0.05187082663178443
v -0.00912499986588955 -0.05060269311070442 -0.05191578716039657
v -0.00912499986588955 -0.050690606236457825 -0.051943313330411904
v -0.00912499986588955 -0.05079472064971924 -0.051950357854366296
v -0.00912499986588955 -0.05039893835783005 -0.05164771527051925
v -0.00912499986588955 -0.04975264519453049 -0.04609845206141471
v -0.00912499986588955 -0.04980108141899109 -0.04602150246500968
v -0.00912499986588955 -0.04062000289559364 -0.02740129083395004
v -0.00912499986588955 -0.04101770371198654 -0.026905270293354985
v -0.00912499986588955 -0.04077065363526344 -0.027153596282005307
v -0.00912499986588955 -0.03889787942171097 -0.07803033292293547
v -0.00912499986588955 -0.05189431458711624 -0.0561753399670124
v -0.00912499986588955 -0.051329355686903 -0.045871157199144356
v -0.00912499986588955 -0.04419875890016556 -0.02436476200819015
v -0.00912499986588955 -0.05015901103615761 -0.04585824161767959
v -0.00912499986588955 -0.05000675469636917 -0.04587836936116218
v -0.00912499986588955 -0.05010092630982399 -0.04585886746644973
v -0.00912499986588955 -0.04987235367298126 -0.045950848609209054
v -0.00912499986588955 -0.04053733870387077 -0.02765647508203983
v -0.00912499986588955 -0.036581773310899734 -0.04980914667248725
v -0.00912499986588955 -0.049723729491233826 -0.046184327453374856
v -0.00912499986588955 -0.051890045404434204 -0.051900394260883324
v -0.00912499986588955 -0.04821839928627014 -0.02157066017389297
v -0.00912499986588955 -0.04795736074447632 -0.02158904634416103
v -0.00912499986588955 -0.05580843240022659 -0.037640787661075585
v -0.00912499986588955 -0.05141345411539078 -0.04578267410397529
v -0.00912499986588955 -0.049907386302948 -0.04592590779066085
v -0.00912499986588955 -0.04796665906906128 -0.051393561065196984
v -0.00912499986588955 -0.04796309024095535 -0.05150448158383369
v -0.00912499986588955 -0.0479612834751606 -0.051429551094770425
v -0.00912499986588955 -0.03876484930515289 -0.07795111835002898
v -0.00912499986588955 -0.03880990669131279 -0.07798781245946883
v -0.00912499986588955 -0.053326256573200226 -0.06387316435575484
v -0.00912499986588955 -0.039457350969314575 -0.07808083295822142
v -0.00912499986588955 -0.03949771448969841 -0.07807771116495131
v -0.00912499986588955 -0.039083413779735565 -0.07807224988937377
v -0.00912499986588955 -0.062188778072595596 -0.02787981182336807
v -0.00912499986588955 -0.04739244282245636 -0.021857172250747677
v -0.00912499986588955 -0.051526010036468506 -0.045709948986768716
v -0.00912499986588955 -0.0512695237994194 -0.04597498103976249
v -0.00912499986588955 -0.048290763050317764 -0.05175162479281425
v -0.00912499986588955 -0.033747587352991104 -0.07216456532478331
v -0.00912499986588955 -0.033750008791685104 -0.07241287082433699
v -0.00912499986588955 -0.03380172327160835 -0.07261809706687926
v -0.00912499986588955 -0.036372095346450806 -0.07544977217912673
v -0.00912499986588955 -0.03399452567100525 -0.07292204350233077
v -0.00912499986588955 -0.07389137893915176 -0.051309175789356225
v -0.00912499986588955 -0.07426246255636215 -0.05157168582081794
v -0.00912499986588955 -0.07416508346796036 -0.051456820219755166
v -0.00912499986588955 -0.060882944613695145 -0.022175313904881474
v -0.00912499986588955 -0.04768965765833855 -0.021675033494830128
v -0.00912499986588955 -0.051765333861112595 -0.045659333467483514
v -0.00912499986588955 -0.05690052732825279 -0.0718242824077606
v -0.00912499986588955 -0.07432570308446884 -0.05169901996850967
v -0.00912499986588955 -0.07435157150030136 -0.051987949758768075
v -0.00912499986588955 -0.07435639202594757 -0.051836356520652764
v -0.00912499986588955 -0.06094310060143471 -0.035870965570211404
v -0.00912499986588955 -0.0785888135433197 -0.028758537024259564
v -0.00912499986588955 -0.07856398075819016 -0.028578041121363636
v -0.00912499986588955 -0.05164079740643501 -0.045670129358768456
v -0.00912499986588955 -0.048204466700553894 -0.05174618959426879
v -0.00912499986588955 -0.03390706330537796 -0.0728146657347679
v -0.00912499986588955 -0.056953392922878265 -0.0617384910583496
v -0.00912499986588955 -0.07151893526315689 -0.07120136916637419
v -0.00912499986588955 -0.0715915635228157 -0.07111529260873793
v -0.00912499986588955 -0.07426811009645462 -0.02312999218702316
v -0.00912499986588955 -0.07412083446979523 -0.0229836069047451
v -0.00912499986588955 -0.07856746017932892 -0.028970340266823765
v -0.00912499986588955 -0.07521907985210419 -0.045756284147500985
v -0.00912499986588955 -0.0748792290687561 -0.04590213298797607
v -0.00912499986588955 -0.07500632852315903 -0.04588046669960021
v -0.00912499986588955 -0.05284452810883522 -0.04570944979786872
v -0.00912499986588955 -0.04798200726509094 -0.05157282575964927
v -0.00912499986588955 -0.04806576296687126 -0.05168385803699493
v -0.00912499986588955 -0.04801691696047783 -0.051633656024932854
v -0.00912499986588955 -0.04813137650489807 -0.051723681390285485
v -0.00912499986588955 -0.07403966784477234 -0.05136699974536895
v -0.00912499986588955 -0.07170126587152481 -0.07089990377426146
v -0.00912499986588955 -0.0642523542046547 -0.07798538357019423
v -0.00912499986588955 -0.06455028057098389 -0.07786794006824492
v -0.00912499986588955 -0.06400066614151001 -0.02578538469970226
v -0.00912499986588955 -0.07371816039085388 -0.022807417437434193
v -0.00912499986588955 -0.07393389940261841 -0.022872734814882275
v -0.00912499986588955 -0.07849227637052536 -0.02839931100606918
v -0.00912499986588955 -0.07512608170509338 -0.04582813009619712
v -0.00912499986588955 -0.057759784162044525 -0.051615610718727105
v -0.00912499986588955 -0.0739169716835022 -0.05469044297933578
v -0.00912499986588955 -0.07374458760023117 -0.05128983035683631
v -0.00912499986588955 -0.07189011573791504 -0.07017961144447325
v -0.00912499986588955 -0.06470932811498642 -0.0777723118662834
v -0.00912499986588955 -0.07687345147132874 -0.03723564743995666
v -0.00912499986588955 -0.07532182335853577 -0.045592602342367165
v -0.00912499986588955 -0.07533546537160873 -0.04553893953561782
v -0.00912499986588955 -0.07528212666511536 -0.045677300542592995
v -0.00912499986588955 -0.07331989705562592 -0.05873459577560424
v -0.00912499986588955 -0.0734148919582367 -0.05805175378918647
v -0.00912499986588955 -0.0725826546549797 -0.06433795392513274
v -0.00912499986588955 -0.06812263280153275 -0.07445714622735976
v -0.00912499986588955 -0.06474150717258453 -0.07774491608142851
v -0.00912499986588955 -0.06392108649015427 -0.07807771116495131
v -0.00912499986588955 -0.07632246613502502 -0.025705933570861813
v -0.00912499986588955 -0.07839453965425491 -0.0282567273825407
v -0.00912499986588955 -0.060163840651512146 -0.046625625342130654
v -0.00912499986588955 -0.0753355547785759 -0.04553714767098426
v -0.00912499986588955 -0.07351116091012955 -0.0573689118027687
v -0.00912499986588955 -0.07192264497280121 -0.06995435804128645
v -0.00912499986588955 -0.07533583045005798 -0.045536097139120095
v -0.00912499986588955 -0.07533620297908783 -0.0455353558063507
v -0.00912499986588955 -0.05862673744559288 -0.045994054526090615
v -0.00912499986588955 -0.059482816606760025 -0.05104289203882217
v -0.00912499986588955 -0.07354636490345001 -0.022787548601627346
usemtl Mountain_Mist
f 182 181 190
f 182 190 189
f 190 188 189
f 189 188 187
f 188 186 187
f 187 186 185
f 186 183 185
f 185 183 184
f 179 180 178
f 179 178 177
f 178 176 177
f 177 176 175
f 176 174 175
f 175 174 173
f 124 125 123
f 124 123 122
f 123 121 122
f 122 121 120
f 121 119 120
f 120 119 118
f 179 181 180
f 181 182 180
f 124 126 125
f 126 127 125
f 621 643 619
f 642 637 590
f 637 640 590
f 590 640 641
f 627 625 603
f 635 634 590
f 634 599 590
f 586 633 612
f 586 632 596
f 632 631 596
f 596 631 597
f 622 639 596
f 639 630 596
f 596 630 619
f 630 628 619
f 619 628 629
f 642 636 637
f 636 603 637
f 637 603 626
f 603 625 626
f 614 590 615
f 612 613 586
f 613 623 586
f 586 623 632
f 575 607 553
f 607 608 553
f 627 603 602
f 603 604 602
f 602 604 618
f 641 624 590
f 624 601 590
f 590 601 591
f 599 600 590
f 600 616 590
f 590 616 615
f 597 598 596
f 598 611 596
f 596 611 622
f 574 594 575
f 594 609 575
f 575 609 607
f 591 592 590
f 592 617 590
f 590 617 635
f 629 638 619
f 638 620 619
f 619 620 621
f 620 588 621
f 621 588 580
f 588 589 580
f 580 589 587
f 584 571 558
f 571 585 558
f 558 585 605
f 587 581 580
f 581 582 580
f 580 582 610
f 534 579 535
f 579 578 535
f 535 578 564
f 575 576 534
f 576 577 534
f 577 595 534
f 534 595 579
f 538 574 532
f 574 575 532
f 532 575 533
f 575 534 533
f 633 586 568
f 586 566 568
f 568 566 567
f 537 536 544
f 536 535 544
f 544 535 565
f 535 564 565
f 608 606 553
f 606 562 553
f 553 562 563
f 540 547 542
f 546 559 547
f 559 572 547
f 547 572 571
f 572 593 571
f 571 593 585
f 615 644 614
f 644 583 614
f 614 583 570
f 583 556 570
f 570 556 558
f 556 557 558
f 558 557 584
f 540 551 547
f 551 560 547
f 547 560 549
f 573 546 548
f 546 547 548
f 548 547 550
f 547 549 550
f 555 537 545
f 537 544 545
f 545 544 566
f 544 569 566
f 566 569 567
f 563 561 553
f 561 554 553
f 553 554 552
f 554 539 552
f 552 539 541
f 539 540 541
f 541 540 543
f 540 542 543
f 537 518 519
f 537 519 536
f 519 513 536
f 536 513 535
f 513 494 535
f 535 494 534
f 494 476 534
f 534 476 533
f 476 454 533
f 533 454 532
f 454 453 532
f 532 453 538
f 518 537 502
f 537 555 502
f 396 353 395
f 353 352 395
f 395 352 394
f 352 363 394
f 394 363 393
f 363 358 393
f 393 358 392
f 358 347 392
f 571 426 425
f 571 425 547
f 425 430 547
f 547 430 542
f 401 357 400
f 357 356 400
f 400 356 399
f 356 368 399
f 399 368 398
f 368 362 398
f 398 362 397
f 362 351 397
f 542 430 436
f 542 436 543
f 436 437 543
f 543 437 541
f 437 421 541
f 541 421 552
f 641 447 441
f 641 441 624
f 441 440 624
f 624 440 601
f 410 371 409
f 371 370 409
f 409 370 408
f 370 382 408
f 408 382 407
f 382 378 407
f 601 440 463
f 601 463 591
f 463 507 591
f 591 507 592
f 507 508 592
f 592 508 617
f 508 464 617
f 617 464 635
f 371 410 376
f 410 411 376
f 574 528 529
f 574 529 594
f 529 495 594
f 594 495 609
f 495 520 609
f 609 520 607
f 520 514 607
f 607 514 608
f 514 497 608
f 608 497 606
f 497 496 606
f 606 496 562
f 496 516 562
f 562 516 563
f 516 511 563
f 563 511 561
f 635 464 442
f 635 442 634
f 442 449 634
f 634 449 599
f 374 414 369
f 414 415 369
f 586 531 530
f 586 530 566
f 530 522 566
f 566 522 545
f 522 502 545
f 545 502 555
f 599 449 490
f 599 490 600
f 490 515 600
f 600 515 616
f 515 491 616
f 616 491 615
f 491 465 615
f 615 465 644
f 350 418 349
f 418 383 349
f 626 448 488
f 626 488 637
f 488 487 637
f 637 487 640
f 487 447 640
f 640 447 641
f 50 60 48
f 35 33 49
f 33 31 49
f 49 31 62
f 48 47 50
f 47 45 50
f 50 45 43
f 31 29 62
f 29 27 62
f 62 27 59
f 27 25 59
f 59 25 58
f 25 23 58
f 58 23 57
f 23 21 57
f 57 21 54
f 21 19 54
f 54 19 53
f 19 17 53
f 53 17 52
f 17 15 52
f 52 15 51
f 15 13 51
f 51 13 56
f 13 11 56
f 56 11 55
f 11 9 55
f 55 9 63
f 9 7 63
f 63 7 61
f 7 5 61
f 61 5 60
f 5 3 60
f 60 3 48
f 43 41 50
f 41 39 50
f 50 39 49
f 39 37 49
f 49 37 35
f 3 2 48
f 2 46 48
f 48 46 47
f 46 44 47
f 47 44 45
f 44 42 45
f 45 42 43
f 42 40 43
f 43 40 41
f 40 38 41
f 41 38 39
f 38 36 39
f 39 36 37
f 36 34 37
f 37 34 35
f 34 32 35
f 35 32 33
f 32 30 33
f 33 30 31
f 30 28 31
f 31 28 29
f 28 26 29
f 29 26 27
f 26 24 27
f 27 24 25
f 24 22 25
f 25 22 23
f 22 20 23
f 23 20 21
f 20 18 21
f 21 18 19
f 18 16 19
f 19 16 17
f 16 14 17
f 17 14 15
f 14 12 15
f 15 12 13
f 12 10 13
f 13 10 11
f 10 8 11
f 11 8 9
f 8 6 9
f 9 6 7
f 6 4 7
f 7 4 5
f 4 1 5
f 5 1 3
f 1 2 3
f 60 50 65
f 50 64 65
f 60 65 77
f 60 77 61
f 77 76 61
f 61 76 63
f 76 75 63
f 63 75 55
f 75 74 55
f 55 74 56
f 74 73 56
f 56 73 51
f 73 72 51
f 51 72 52
f 72 71 52
f 52 71 53
f 71 70 53
f 53 70 54
f 70 69 54
f 54 69 57
f 69 68 57
f 57 68 58
f 68 67 58
f 58 67 59
f 67 66 59
f 59 66 62
f 78 49 66
f 49 62 66
f 148 172 135
f 172 162 135
f 135 162 134
f 158 165 166
f 140 159 158
f 159 171 158
f 158 171 165
f 166 164 158
f 164 149 158
f 158 149 135
f 149 147 135
f 135 147 148
f 162 163 134
f 163 170 134
f 134 170 168
f 170 169 168
f 168 169 161
f 169 157 161
f 161 157 155
f 157 156 155
f 155 156 154
f 156 160 154
f 154 160 153
f 160 146 153
f 153 146 144
f 146 145 144
f 144 145 143
f 145 152 143
f 143 152 151
f 152 150 151
f 151 150 142
f 150 139 142
f 142 139 137
f 139 138 137
f 137 138 136
f 138 141 136
f 136 141 140
f 141 167 140
f 140 167 159
f 135 134 92
f 134 108 92
f 184 183 272
f 183 191 272
f 298 272 319
f 251 252 220
f 252 253 220
f 248 249 191
f 249 250 191
f 191 250 251
f 253 254 220
f 254 255 220
f 220 255 218
f 192 245 191
f 245 247 191
f 191 247 248
f 302 308 272
f 255 256 218
f 256 257 218
f 218 257 216
f 257 258 216
f 216 258 214
f 258 259 214
f 214 259 212
f 259 260 212
f 212 260 210
f 260 261 210
f 210 261 208
f 261 262 208
f 208 262 206
f 262 263 206
f 206 263 204
f 263 264 204
f 204 264 202
f 264 265 202
f 202 265 200
f 265 266 200
f 200 266 198
f 266 267 198
f 198 267 196
f 267 268 196
f 196 268 192
f 268 246 192
f 192 246 245
f 308 309 272
f 309 317 272
f 272 317 319
f 321 310 271
f 310 307 271
f 271 307 301
f 251 220 191
f 220 271 191
f 191 271 272
f 271 301 272
f 272 301 302
f 319 320 298
f 320 316 298
f 298 316 296
f 316 315 296
f 296 315 294
f 315 314 294
f 294 314 292
f 314 303 292
f 292 303 290
f 303 300 290
f 290 300 288
f 300 299 288
f 288 299 286
f 299 306 286
f 286 306 284
f 306 305 284
f 284 305 282
f 305 304 282
f 282 304 280
f 304 311 280
f 280 311 278
f 311 318 278
f 278 318 276
f 318 312 276
f 276 312 274
f 312 313 274
f 274 313 271
f 313 322 271
f 271 322 321
f 91 118 78
f 118 119 78
f 40 42 64
f 42 44 64
f 64 44 65
f 78 66 26
f 93 112 91
f 112 110 91
f 91 110 111
f 111 115 91
f 115 103 91
f 91 103 105
f 26 28 78
f 28 30 78
f 78 30 32
f 44 46 65
f 46 2 65
f 65 2 77
f 2 1 77
f 77 1 76
f 1 4 76
f 76 4 75
f 4 6 75
f 75 6 74
f 6 8 74
f 74 8 73
f 8 10 73
f 73 10 72
f 10 12 72
f 72 12 71
f 12 14 71
f 71 14 70
f 14 16 70
f 70 16 69
f 16 18 69
f 69 18 68
f 18 20 68
f 68 20 67
f 20 22 67
f 67 22 66
f 22 24 66
f 66 24 26
f 34 36 64
f 36 38 64
f 64 38 40
f 117 94 92
f 94 95 92
f 103 104 105
f 104 109 105
f 105 109 102
f 109 90 102
f 102 90 88
f 90 89 88
f 88 89 87
f 89 101 87
f 87 101 100
f 101 99 100
f 100 99 98
f 99 86 98
f 98 86 84
f 86 85 84
f 84 85 83
f 85 97 83
f 83 97 96
f 97 82 96
f 96 82 80
f 82 81 80
f 80 81 79
f 81 113 79
f 79 113 114
f 113 106 114
f 114 106 108
f 106 107 108
f 108 107 92
f 107 116 92
f 92 116 117
f 32 34 78
f 34 64 78
f 78 64 91
f 64 92 91
f 91 92 93
f 92 95 93
f 217 218 216
f 217 216 215
f 216 214 215
f 215 214 213
f 214 212 213
f 213 212 211
f 212 210 211
f 211 210 209
f 210 208 209
f 209 208 207
f 208 206 207
f 207 206 205
f 206 204 205
f 205 204 203
f 204 202 203
f 203 202 201
f 202 200 201
f 201 200 199
f 200 198 199
f 199 198 197
f 198 196 197
f 197 196 195
f 196 192 195
f 195 192 194
f 167 109 159
f 109 104 159
f 159 104 171
f 104 103 171
f 171 103 165
f 103 115 165
f 165 115 166
f 115 111 166
f 166 111 164
f 111 110 164
f 164 110 149
f 110 112 149
f 149 112 147
f 112 93 147
f 147 93 148
f 93 95 148
f 148 95 172
f 95 94 172
f 172 94 162
f 94 117 162
f 162 117 163
f 117 116 163
f 163 116 170
f 116 107 170
f 170 107 169
f 107 106 169
f 169 106 157
f 106 113 157
f 157 113 156
f 113 81 156
f 156 81 160
f 81 82 160
f 160 82 146
f 82 97 146
f 146 97 145
f 97 85 145
f 145 85 152
f 85 86 152
f 152 86 150
f 86 99 150
f 150 99 139
f 99 101 139
f 139 101 138
f 101 89 138
f 138 89 141
f 89 90 141
f 141 90 167
f 90 109 167
f 127 126 133
f 127 133 132
f 133 131 132
f 132 131 130
f 131 128 130
f 130 128 129
f 194 192 193
f 192 191 193
f 193 191 158
f 191 91 158
f 158 91 140
f 91 105 140
f 357 401 361
f 401 402 361
f 573 509 473
f 573 473 546
f 473 472 546
f 546 472 559
f 472 475 559
f 559 475 572
f 475 474 572
f 572 474 593
f 474 471 593
f 593 471 585
f 418 350 417
f 350 355 417
f 417 355 416
f 355 379 416
f 416 379 415
f 379 369 415
f 269 272 297
f 272 298 297
f 509 573 466
f 573 548 466
f 128 173 129
f 173 174 129
f 605 512 526
f 605 526 558
f 526 525 558
f 558 525 570
f 525 524 570
f 570 524 614
f 512 605 471
f 605 585 471
f 353 396 351
f 396 397 351
f 220 218 219
f 218 217 219
f 184 272 269
f 180 182 269
f 176 178 180
f 184 269 185
f 270 158 269
f 158 135 269
f 193 158 219
f 158 270 219
f 219 270 220
f 270 271 220
f 50 49 129
f 182 189 269
f 189 187 269
f 269 187 185
f 92 64 135
f 64 50 135
f 135 50 269
f 50 129 269
f 269 129 180
f 129 174 180
f 180 174 176
f 127 132 49
f 132 130 49
f 49 130 129
f 78 119 49
f 119 121 49
f 121 123 49
f 123 125 49
f 49 125 127
f 219 217 243
f 243 233 219
f 233 234 219
f 219 234 240
f 240 239 219
f 239 225 219
f 219 225 193
f 225 226 193
f 193 226 238
f 238 232 193
f 232 224 193
f 193 224 194
f 224 242 194
f 242 231 194
f 194 231 195
f 231 230 195
f 195 230 197
f 230 237 197
f 197 237 199
f 237 229 199
f 199 229 201
f 229 228 201
f 201 228 203
f 228 227 203
f 203 227 205
f 227 223 205
f 205 223 207
f 223 222 207
f 207 222 209
f 222 221 209
f 209 221 211
f 221 241 211
f 211 241 213
f 241 236 213
f 213 236 215
f 236 235 215
f 215 235 217
f 235 244 217
f 217 244 243
f 377 406 378
f 406 407 378
f 554 510 468
f 554 468 539
f 468 467 539
f 539 467 540
f 467 492 540
f 540 492 551
f 492 469 551
f 551 469 560
f 469 493 560
f 560 493 549
f 493 470 549
f 549 470 550
f 470 466 550
f 550 466 548
f 414 374 413
f 374 375 413
f 413 375 412
f 375 380 412
f 412 380 411
f 380 376 411
f 274 271 273
f 271 270 273
f 510 554 511
f 554 561 511
f 517 636 452
f 636 642 452
f 382 370 91
f 380 375 91
f 91 375 118
f 368 356 191
f 382 91 378
f 91 191 378
f 378 191 377
f 367 372 191
f 372 381 191
f 191 381 377
f 370 371 91
f 371 376 91
f 91 376 380
f 356 357 191
f 357 361 191
f 191 361 367
f 183 351 191
f 351 362 191
f 191 362 368
f 375 374 118
f 374 369 118
f 118 369 120
f 369 379 120
f 120 379 122
f 379 355 122
f 122 355 124
f 355 350 124
f 124 350 126
f 350 349 126
f 126 349 133
f 349 360 133
f 133 360 131
f 360 366 131
f 131 366 128
f 366 365 128
f 365 359 128
f 128 359 173
f 359 364 173
f 173 364 175
f 364 373 175
f 175 373 177
f 373 354 177
f 177 354 179
f 354 348 179
f 179 348 181
f 348 347 181
f 181 347 190
f 347 358 190
f 190 358 188
f 358 363 188
f 188 363 186
f 363 352 186
f 186 352 183
f 352 353 183
f 183 353 351
f 406 377 405
f 377 381 405
f 405 381 404
f 381 372 404
f 404 372 403
f 372 367 403
f 403 367 402
f 367 361 402
f 269 297 345
f 332 344 270
f 344 339 270
f 270 339 273
f 345 341 269
f 341 333 269
f 269 333 334
f 339 340 273
f 340 343 273
f 273 343 275
f 343 342 275
f 275 342 277
f 342 338 277
f 277 338 279
f 338 331 279
f 279 331 281
f 331 330 281
f 281 330 283
f 330 329 283
f 283 329 285
f 329 327 285
f 285 327 287
f 327 325 287
f 287 325 289
f 325 324 289
f 289 324 291
f 324 337 291
f 291 337 293
f 337 336 293
f 293 336 295
f 336 335 295
f 295 335 297
f 335 346 297
f 297 346 345
f 334 326 269
f 326 323 269
f 269 323 270
f 323 328 270
f 270 328 332
f 140 105 102
f 140 102 136
f 102 88 136
f 136 88 137
f 88 87 137
f 137 87 142
f 87 100 142
f 142 100 151
f 100 98 151
f 151 98 143
f 98 84 143
f 143 84 144
f 84 83 144
f 144 83 153
f 83 96 153
f 153 96 154
f 96 80 154
f 154 80 155
f 80 79 155
f 155 79 161
f 79 114 161
f 161 114 168
f 114 108 168
f 168 108 134
f 231 246 230
f 246 268 230
f 230 268 237
f 268 267 237
f 237 267 229
f 267 266 229
f 229 266 228
f 266 265 228
f 228 265 227
f 265 264 227
f 227 264 223
f 264 263 223
f 223 263 222
f 263 262 222
f 222 262 221
f 262 261 221
f 221 261 241
f 261 260 241
f 241 260 236
f 260 259 236
f 236 259 235
f 259 258 235
f 235 258 244
f 258 257 244
f 244 257 243
f 257 256 243
f 243 256 233
f 256 255 233
f 233 255 234
f 255 254 234
f 234 254 240
f 254 253 240
f 240 253 239
f 253 252 239
f 239 252 225
f 252 251 225
f 225 251 226
f 251 250 226
f 226 250 238
f 250 249 238
f 238 249 232
f 249 248 232
f 232 248 224
f 248 247 224
f 224 247 242
f 247 245 242
f 242 245 231
f 245 246 231
f 348 391 347
f 391 392 347
f 614 524 523
f 614 523 590
f 523 452 590
f 590 452 642
f 343 313 342
f 313 312 342
f 342 312 338
f 312 318 338
f 338 318 331
f 318 311 331
f 331 311 330
f 311 304 330
f 330 304 329
f 304 305 329
f 329 305 327
f 305 306 327
f 327 306 325
f 306 299 325
f 325 299 324
f 299 300 324
f 324 300 337
f 300 303 337
f 337 303 336
f 303 314 336
f 336 314 335
f 314 315 335
f 335 315 346
f 315 316 346
f 346 316 345
f 316 320 345
f 345 320 341
f 320 319 341
f 341 319 333
f 319 317 333
f 333 317 334
f 317 309 334
f 334 309 326
f 309 308 326
f 326 308 323
f 308 302 323
f 323 302 328
f 302 301 328
f 328 301 332
f 301 307 332
f 332 307 344
f 307 310 344
f 344 310 339
f 310 321 339
f 339 321 340
f 321 322 340
f 340 322 343
f 322 313 343
f 391 348 390
f 348 354 390
f 390 354 389
f 354 373 389
f 389 373 388
f 373 364 388
f 556 451 478
f 556 478 557
f 478 477 557
f 557 477 584
f 477 426 584
f 584 426 571
f 359 387 364
f 387 388 364
f 603 527 505
f 603 505 604
f 505 504 604
f 604 504 618
f 504 506 618
f 618 506 602
f 506 489 602
f 602 489 627
f 489 462 627
f 627 462 625
f 462 448 625
f 625 448 626
f 297 298 296
f 297 296 295
f 296 294 295
f 295 294 293
f 294 292 293
f 293 292 291
f 292 290 291
f 291 290 289
f 290 288 289
f 289 288 287
f 288 286 287
f 287 286 285
f 286 284 285
f 285 284 283
f 284 282 283
f 283 282 281
f 282 280 281
f 281 280 279
f 280 278 279
f 279 278 277
f 278 276 277
f 277 276 275
f 276 274 275
f 275 274 273
f 387 359 386
f 359 365 386
f 386 365 385
f 365 366 385
f 385 366 384
f 366 360 384
f 384 360 383
f 360 349 383
f 644 465 450
f 644 450 583
f 450 451 583
f 583 451 556
f 516 496 509
f 496 452 509
f 513 519 452
f 519 518 452
f 452 518 517
f 518 502 517
f 517 502 527
f 500 446 418
f 506 504 414
f 504 505 414
f 485 502 503
f 502 522 503
f 503 522 521
f 522 530 521
f 521 530 531
f 496 497 495
f 497 514 495
f 495 514 520
f 466 492 467
f 447 487 488
f 527 502 505
f 502 485 505
f 505 485 414
f 485 486 414
f 414 486 501
f 501 483 414
f 483 484 414
f 414 484 481
f 481 482 414
f 482 461 414
f 414 461 415
f 454 476 452
f 476 494 452
f 452 494 513
f 472 471 475
f 471 474 475
f 524 525 523
f 525 526 523
f 523 526 452
f 526 512 452
f 452 512 509
f 512 471 509
f 509 471 473
f 471 472 473
f 492 466 469
f 466 470 469
f 469 470 493
f 467 468 466
f 468 510 466
f 466 510 509
f 510 511 509
f 509 511 516
f 448 462 414
f 462 489 414
f 414 489 506
f 418 446 383
f 391 456 392
f 456 443 392
f 495 529 496
f 529 528 496
f 496 528 452
f 528 453 452
f 452 453 454
f 443 444 392
f 444 455 392
f 392 455 498
f 490 449 410
f 449 442 410
f 410 442 411
f 442 464 411
f 411 464 508
f 508 507 411
f 507 463 411
f 411 463 412
f 463 440 412
f 412 440 413
f 440 441 413
f 413 441 414
f 441 447 414
f 414 447 448
f 447 488 448
f 436 402 437
f 402 401 437
f 437 401 421
f 446 439 383
f 439 433 383
f 383 433 384
f 433 438 384
f 384 438 385
f 438 459 385
f 385 459 386
f 459 480 386
f 480 458 386
f 386 458 387
f 458 431 387
f 387 431 388
f 431 432 388
f 388 432 389
f 432 445 389
f 389 445 390
f 445 457 390
f 390 457 391
f 457 499 391
f 391 499 456
f 461 435 415
f 435 428 415
f 415 428 429
f 436 430 402
f 430 425 402
f 402 425 403
f 425 426 403
f 403 426 404
f 426 477 404
f 404 477 405
f 477 478 405
f 405 478 406
f 478 451 406
f 406 451 407
f 451 450 407
f 407 450 408
f 450 465 408
f 408 465 409
f 465 491 409
f 409 491 410
f 491 515 410
f 410 515 490
f 429 434 415
f 434 424 415
f 415 424 416
f 424 422 416
f 416 422 417
f 422 423 417
f 417 423 418
f 423 460 418
f 418 460 500
f 399 398 419
f 398 397 419
f 419 397 396
f 498 479 392
f 479 427 392
f 392 427 393
f 427 420 393
f 393 420 394
f 420 419 394
f 394 419 395
f 419 396 395
f 421 401 419
f 401 400 419
f 419 400 399
f 528 574 453
f 574 538 453
f 527 603 517
f 603 636 517
f 552 421 419
f 552 419 553
f 419 420 553
f 553 420 575
f 575 420 427
f 575 427 576
f 427 479 576
f 576 479 577
f 479 498 577
f 577 498 595
f 498 455 595
f 595 455 579
f 579 455 444
f 579 444 578
f 444 443 578
f 578 443 564
f 564 443 456
f 564 456 565
f 456 499 565
f 565 499 544
f 499 457 544
f 544 457 569
f 457 445 569
f 569 445 567
f 445 432 567
f 567 432 568
f 633 568 431
f 568 432 431
f 633 431 458
f 633 458 612
f 458 480 612
f 612 480 613
f 480 459 613
f 613 459 623
f 459 438 623
f 623 438 632
f 632 438 433
f 632 433 631
f 433 439 631
f 631 439 597
f 597 439 446
f 597 446 598
f 446 500 598
f 598 500 611
f 500 460 611
f 611 460 622
f 460 423 622
f 622 423 639
f 639 423 422
f 639 422 630
f 422 424 630
f 630 424 628
f 628 424 434
f 628 434 629
f 434 429 629
f 629 429 638
f 638 429 428
f 638 428 620
f 428 435 620
f 620 435 588
f 588 435 461
f 588 461 589
f 461 482 589
f 589 482 587
f 482 481 587
f 587 481 581
f 481 484 581
f 581 484 582
f 484 483 582
f 582 483 610
f 483 501 610
f 610 501 580
f 501 486 580
f 580 486 621
f 485 643 486
f 643 621 486
f 503 619 485
f 619 643 485
f 619 503 521
f 619 521 596
f 521 531 596
f 596 531 586
